<svg xmlns="http://www.w3.org/2000/svg" viewBox="0 0 695 695"
     role="img" aria-label="ARIZU">
  <title>ARIZU</title>
  <rect width="695" height="695" fill="var(--logo-ink, #0B1A2F)"/>
  <g transform="translate(-543.682,85.607)">
  <g fill="var(--logo-accent, #C99B46)">
    <title>Z</title>
    <path d="M814.38 529.00V482.09L1008.81 247.85L1017.49 274.35H818.06V215.00H1082.38V261.91L888.21 496.15L879.27 469.65H1088.74V529.00Z"/>
  </g>
  <g transform="translate(-13.463,547.213) scale(0.0344977538,-0.0344977538)" fill="var(--logo-accent, #C99B46)">
    <title>Dachkontur</title>
    <path d="M26215 15823 c-104 -106 -196 -193 -205 -193 -8 0 -285 -270 -615
-600 -330 -330 -607 -600 -615 -600 -8 0 -251 -236 -540 -525 -387 -388 -530
-525 -545 -523 -18 3 -20 12 -23 100 -2 69 -7 99 -17 108 -8 7 -15 27 -15 44
0 25 -11 43 -53 84 -29 29 -60 52 -69 52 -8 0 -21 7 -28 15 -11 13 -183 15
-1440 15 -1257 0 -1429 -2 -1440 -15 -7 -8 -20 -15 -29 -15 -21 0 -121 -100
-121 -122 0 -8 -7 -21 -15 -28 -13 -11 -15 -210 -15 -1679 l0 -1668 23 -21
c23 -22 23 -22 534 -22 442 0 512 2 523 15 7 8 20 15 29 15 9 0 232 216 496
480 349 349 486 480 502 480 19 0 23 6 23 30 0 25 4 30 23 30 31 0 217 186
217 218 0 16 6 22 23 22 16 0 122 99 382 360 260 261 366 360 382 360 19 0 23
6 23 30 0 24 4 30 23 30 16 0 160 138 532 510 280 281 517 510 525 510 8 0
170 155 360 345 249 249 351 345 367 345 17 0 23 6 23 23 0 26 38 67 61 67 8
0 156 142 329 315 173 173 322 315 330 315 9 0 62 47 120 105 58 58 111 105
120 105 20 0 1650 -1630 1650 -1650 0 -24 102 -120 128 -120 18 0 22 -6 22
-30 0 -27 3 -30 30 -30 24 0 30 -4 30 -23 0 -16 134 -157 495 -517 272 -272
495 -502 495 -510 0 -8 277 -292 615 -630 449 -449 615 -621 615 -637 0 -19 6
-23 30 -23 24 0 30 -4 30 -23 0 -16 70 -92 248 -270 l247 -247 485 2 c476 3
485 3 488 23 2 14 -48 70 -178 200 -127 127 -180 186 -180 202 0 19 -6 23 -30
23 -24 0 -30 4 -30 23 0 16 -80 102 -285 307 -205 205 -285 291 -285 307 0 17
-6 23 -23 23 -30 0 -157 127 -157 158 0 18 -6 22 -30 22 -27 0 -30 3 -30 30 0
25 -4 30 -23 30 -25 0 -127 96 -127 120 0 8 -189 204 -420 435 -231 231 -420
427 -420 435 0 8 -182 197 -405 420 -294 294 -405 411 -405 427 0 17 -6 23
-23 23 -25 0 -157 126 -157 150 0 8 -209 224 -465 480 -256 256 -465 472 -465
480 0 8 -263 278 -585 600 -322 322 -585 592 -585 600 0 20 -101 120 -121 120
-9 0 -48 34 -88 75 -40 41 -76 74 -80 73 -3 0 -91 -88 -196 -195z m-3327
-3008 l2 -199 -352 -353 c-194 -194 -360 -353 -368 -353 -8 0 -143 -128 -300
-285 -205 -205 -291 -285 -307 -285 -17 0 -23 -6 -23 -22 0 -26 -185 -218
-210 -218 -9 0 -29 -14 -45 -30 -18 -19 -38 -30 -50 -28 -20 3 -20 8 -23 967
l-2 965 22 23 22 23 815 -2 816 -3 3 -200z"/>
  </g>
  </g>
</svg>
